<svg width="72" height="12" viewBox="0 0 72 12" fill="none" xmlns="http://www.w3.org/2000/svg">
<g clip-path="url(#clip0_188_81)">
<path d="M66.0503 9.51575C64.5058 9.51575 63.1334 8.39804 62.7799 6.85486H71.95C71.95 6.85486 71.9993 6.29571 71.9993 6.09791C71.9993 2.82258 69.3312 0.157227 66.052 0.157227C62.7727 0.157227 60.1047 2.82203 60.1047 6.09791C60.1047 9.37382 62.7578 11.9767 66.052 11.9767C69.3461 11.9767 71.2696 9.55278 71.7497 7.79801H68.9545C68.9545 7.79801 68.0655 9.51575 66.0503 9.51575ZM66.052 2.61704C67.5328 2.61704 68.8185 3.59389 69.2588 5.04978H62.8451C63.2839 3.59389 64.57 2.61704 66.052 2.61704Z" fill="#888888"/>
<path d="M31.0583 11.9767C27.7791 11.9767 25.2068 9.33955 25.2068 6.09791C25.2068 2.85628 27.8748 0.157227 31.154 0.157227C34.4333 0.157227 37.1013 2.92701 37.1013 6.06641C37.1013 7.40406 37.1013 11.6822 37.1013 11.6822H34.7923V9.80807L34.6242 9.76386C34.2176 10.7595 32.7444 11.9767 31.0578 11.9767H31.0583ZM31.154 2.61704C29.302 2.61704 27.7946 4.17017 27.7946 6.07967C27.7946 7.98918 29.3015 9.51635 31.154 9.51635C33.0066 9.51635 34.5135 7.97481 34.5135 6.07967C34.5135 4.18454 33.0066 2.61704 31.154 2.61704Z" fill="#888888"/>
<path d="M43.6902 11.9767C40.4109 11.9767 37.8386 9.33955 37.8386 6.09791C37.8386 2.85628 40.5067 0.157227 43.7859 0.157227C47.0652 0.157227 49.7331 2.92701 49.7331 6.06641C49.7331 7.40406 49.7331 11.6822 49.7331 11.6822H47.4242V9.80807L47.256 9.76386C46.8494 10.7595 45.3763 11.9767 43.6896 11.9767H43.6902ZM43.7859 2.61704C41.9339 2.61704 40.4265 4.17017 40.4265 6.07967C40.4265 7.98918 41.9333 9.51635 43.7859 9.51635C45.6386 9.51635 47.1454 7.97481 47.1454 6.07967C47.1454 4.18454 45.6386 2.61704 43.7859 2.61704Z" fill="#888888"/>
<path d="M53.6091 11.6814L48.87 0.453125H51.4628L54.9362 8.72432L58.4102 0.453125H61.0024L56.2639 11.6814H53.6091Z" fill="#888888"/>
<path d="M8.43081 11.9593C9.72035 11.9593 10.7658 10.9151 10.7658 9.62707C10.7658 8.33908 9.72035 7.29492 8.43081 7.29492C7.14123 7.29492 6.09583 8.33908 6.09583 9.62707C6.09583 10.9151 7.14123 11.9593 8.43081 11.9593Z" fill="#888888"/>
<path d="M14.5336 11.9593C15.8232 11.9593 16.8686 10.9151 16.8686 9.62707C16.8686 8.33908 15.8232 7.29492 14.5336 7.29492C13.244 7.29492 12.1986 8.33908 12.1986 9.62707C12.1986 10.9151 13.244 11.9593 14.5336 11.9593Z" fill="#888888"/>
<path d="M11.4781 0C5.13814 0 -0.00202536 5.2318 -0.000365809 11.6836H2.93205C2.93205 6.84847 6.72799 2.92835 11.4781 2.92835C16.2283 2.92835 20.0243 6.84847 20.0243 11.6836H22.9567C22.9578 5.2318 17.8176 0 11.4781 0Z" fill="#888888"/>
</g>
<defs>
<clipPath id="clip0_188_81">
<rect width="72" height="12" fill="white"/>
</clipPath>
</defs>
</svg>
