<svg width="32" height="33" viewBox="0 0 32 33" fill="none" xmlns="http://www.w3.org/2000/svg">
<path d="M17.1382 10.5082C17.3599 10.4485 17.6625 10.0966 17.5112 9.53159C17.3597 8.96681 16.9219 8.8139 16.7001 8.87308L14.307 9.51429L14.7451 11.1494L17.1382 10.5082Z" fill="#F7931A"/>
<path d="M17.9825 13.6592C18.2042 13.5995 18.5068 13.2476 18.3555 12.6826C18.2229 12.1881 17.8709 12.0093 17.6364 12.0121L17.5444 12.0241L15.1513 12.6653L15.5894 14.3004L17.9825 13.6592Z" fill="#F7931A"/>
<path fill-rule="evenodd" clip-rule="evenodd" d="M18.1075 19.2211C20.1176 18.6825 21.8319 17.3674 22.8724 15.5651C23.913 13.7628 24.1947 11.6208 23.6561 9.61056C23.2544 8.11147 22.417 6.76526 21.2502 5.74193C20.0834 4.71876 18.6396 4.06387 17.1009 3.86127C15.5622 3.65864 13.9977 3.91758 12.6058 4.60402C11.214 5.29045 10.0566 6.37395 9.28065 7.71791C8.50473 9.06188 8.14506 10.606 8.2465 12.1545C8.348 13.7031 8.9068 15.1873 9.85158 16.4186C10.7963 17.6496 12.0848 18.573 13.5542 19.0718C15.0238 19.5707 16.6084 19.6227 18.1075 19.2211ZM17.279 16.4371C16.8605 16.549 16.4301 16.3007 16.3179 15.8823L16.2799 15.7401L14.4797 16.2225L12.3849 8.40457L14.1851 7.92222L14.147 7.7801C14.0349 7.36162 14.2835 6.93137 14.7018 6.81905C15.1204 6.70704 15.5508 6.95538 15.6629 7.37391L15.701 7.51603L16.2939 7.35716C17.5634 7.0172 18.7122 7.95077 19.0271 9.1254C19.1808 9.69913 19.1322 10.3223 18.8957 10.8496C19.364 11.1881 19.7177 11.7028 19.8714 12.2764C20.1861 13.4512 19.6582 14.8347 18.3887 15.1751L17.7958 15.3339L17.8339 15.4761C17.9459 15.8946 17.6974 16.3249 17.279 16.4371Z" fill="#F7931A"/>
<path d="M16.8431 20.926C16.8431 21.3491 16.5002 21.692 16.0772 21.692C15.6542 21.692 15.3112 21.3491 15.3112 20.926C15.3112 20.503 15.6542 20.1601 16.0772 20.1601C16.5002 20.1601 16.8431 20.503 16.8431 20.926Z" fill="#F7931A"/>
<path d="M16.8431 18.2253C16.8431 18.6483 16.5002 18.9913 16.0772 18.9913C15.6542 18.9913 15.3112 18.6483 15.3112 18.2253C15.3112 17.8023 15.6542 17.4594 16.0772 17.4594C16.5002 17.4594 16.8431 17.8023 16.8431 18.2253Z" fill="#F7931A"/>
<path d="M14.206 20.926C14.206 21.3491 13.8631 21.692 13.44 21.692C13.017 21.692 12.6741 21.3491 12.6741 20.926C12.6741 20.503 13.017 20.1601 13.44 20.1601C13.8631 20.1601 14.206 20.503 14.206 20.926Z" fill="#F7931A"/>
<path d="M19.4808 20.926C19.4808 21.3491 19.1379 21.692 18.7148 21.692C18.2918 21.692 17.9489 21.3491 17.9489 20.926C17.9489 20.503 18.2918 20.1601 18.7148 20.1601C19.1379 20.1601 19.4808 20.503 19.4808 20.926Z" fill="#F7931A"/>
<path d="M16.8431 23.6268C16.8431 24.0498 16.5002 24.3927 16.0772 24.3927C15.6542 24.3927 15.3112 24.0498 15.3112 23.6268C15.3112 23.2037 15.6542 22.8608 16.0772 22.8608C16.5002 22.8608 16.8431 23.2037 16.8431 23.6268Z" fill="#F7931A"/>
<path d="M14.206 23.6268C14.206 24.0498 13.8631 24.3927 13.44 24.3927C13.017 24.3927 12.6741 24.0498 12.6741 23.6268C12.6741 23.2037 13.017 22.8608 13.44 22.8608C13.8631 22.8608 14.206 23.2037 14.206 23.6268Z" fill="#F7931A"/>
<path d="M11.7234 23.6268C11.7234 24.0498 11.3805 24.3927 10.9575 24.3927C10.5344 24.3927 10.1915 24.0498 10.1915 23.6268C10.1915 23.2037 10.5344 22.8608 10.9575 22.8608C11.3805 22.8608 11.7234 23.2037 11.7234 23.6268Z" fill="#F7931A"/>
<path d="M19.4808 23.6268C19.4808 24.0498 19.1379 24.3927 18.7148 24.3927C18.2918 24.3927 17.9489 24.0498 17.9489 23.6268C17.9489 23.2037 18.2918 22.8608 18.7148 22.8608C19.1379 22.8608 19.4808 23.2037 19.4808 23.6268Z" fill="#F7931A"/>
<path d="M21.9638 23.6268C21.9638 24.0498 21.6209 24.3927 21.1979 24.3927C20.7748 24.3927 20.4319 24.0498 20.4319 23.6268C20.4319 23.2037 20.7748 22.8608 21.1979 22.8608C21.6209 22.8608 21.9638 23.2037 21.9638 23.6268Z" fill="#F7931A"/>
<path d="M16.8431 26.3275C16.8431 26.7505 16.5002 27.0935 16.0772 27.0935C15.6542 27.0935 15.3112 26.7505 15.3112 26.3275C15.3112 25.9045 15.6542 25.5615 16.0772 25.5615C16.5002 25.5615 16.8431 25.9045 16.8431 26.3275Z" fill="#F7931A"/>
<path d="M16.8431 29.0282C16.8431 29.4513 16.5002 29.7942 16.0772 29.7942C15.6542 29.7942 15.3112 29.4513 15.3112 29.0282C15.3112 28.6052 15.6542 28.2623 16.0772 28.2623C16.5002 28.2623 16.8431 28.6052 16.8431 29.0282Z" fill="#F7931A"/>
<path d="M14.206 26.3275C14.206 26.7505 13.8631 27.0935 13.44 27.0935C13.017 27.0935 12.6741 26.7505 12.6741 26.3275C12.6741 25.9045 13.017 25.5615 13.44 25.5615C13.8631 25.5615 14.206 25.9045 14.206 26.3275Z" fill="#F7931A"/>
<path d="M14.206 29.0282C14.206 29.4513 13.8631 29.7942 13.44 29.7942C13.017 29.7942 12.6741 29.4513 12.6741 29.0282C12.6741 28.6052 13.017 28.2623 13.44 28.2623C13.8631 28.2623 14.206 28.6052 14.206 29.0282Z" fill="#F7931A"/>
<path d="M11.7234 26.3275C11.7234 26.7505 11.3805 27.0935 10.9575 27.0935C10.5344 27.0935 10.1915 26.7505 10.1915 26.3275C10.1915 25.9045 10.5344 25.5615 10.9575 25.5615C11.3805 25.5615 11.7234 25.9045 11.7234 26.3275Z" fill="#F7931A"/>
<path d="M11.7234 29.0282C11.7234 29.4513 11.3805 29.7942 10.9575 29.7942C10.5344 29.7942 10.1915 29.4513 10.1915 29.0282C10.1915 28.6052 10.5344 28.2623 10.9575 28.2623C11.3805 28.2623 11.7234 28.6052 11.7234 29.0282Z" fill="#F7931A"/>
<path d="M9.08578 26.3275C9.08578 26.7505 8.74285 27.0935 8.31982 27.0935C7.89679 27.0935 7.55386 26.7505 7.55386 26.3275C7.55386 25.9045 7.89679 25.5615 8.31982 25.5615C8.74285 25.5615 9.08578 25.9045 9.08578 26.3275Z" fill="#F7931A"/>
<path d="M9.08578 29.0282C9.08578 29.4513 8.74285 29.7942 8.31982 29.7942C7.89679 29.7942 7.55386 29.4513 7.55386 29.0282C7.55386 28.6052 7.89679 28.2623 8.31982 28.2623C8.74285 28.2623 9.08578 28.6052 9.08578 29.0282Z" fill="#F7931A"/>
<path d="M6.60321 29.0282C6.60321 29.4513 6.26028 29.7942 5.83725 29.7942C5.41422 29.7942 5.07129 29.4513 5.07129 29.0282C5.07129 28.6052 5.41422 28.2623 5.83725 28.2623C6.26028 28.2623 6.60321 28.6052 6.60321 29.0282Z" fill="#F7931A"/>
<path d="M19.4808 26.3275C19.4808 26.7505 19.1379 27.0935 18.7148 27.0935C18.2918 27.0935 17.9489 26.7505 17.9489 26.3275C17.9489 25.9045 18.2918 25.5615 18.7148 25.5615C19.1379 25.5615 19.4808 25.9045 19.4808 26.3275Z" fill="#F7931A"/>
<path d="M19.4808 29.0282C19.4808 29.4513 19.1379 29.7942 18.7148 29.7942C18.2918 29.7942 17.9489 29.4513 17.9489 29.0282C17.9489 28.6052 18.2918 28.2623 18.7148 28.2623C19.1379 28.2623 19.4808 28.6052 19.4808 29.0282Z" fill="#F7931A"/>
<path d="M21.9638 26.3275C21.9638 26.7505 21.6209 27.0935 21.1979 27.0935C20.7748 27.0935 20.4319 26.7505 20.4319 26.3275C20.4319 25.9045 20.7748 25.5615 21.1979 25.5615C21.6209 25.5615 21.9638 25.9045 21.9638 26.3275Z" fill="#F7931A"/>
<path d="M21.9638 29.0282C21.9638 29.4513 21.6209 29.7942 21.1979 29.7942C20.7748 29.7942 20.4319 29.4513 20.4319 29.0282C20.4319 28.6052 20.7748 28.2623 21.1979 28.2623C21.6209 28.2623 21.9638 28.6052 21.9638 29.0282Z" fill="#F7931A"/>
<path d="M24.4464 26.3275C24.4464 26.7505 24.1035 27.0935 23.6804 27.0935C23.2574 27.0935 22.9145 26.7505 22.9145 26.3275C22.9145 25.9045 23.2574 25.5615 23.6804 25.5615C24.1035 25.5615 24.4464 25.9045 24.4464 26.3275Z" fill="#F7931A"/>
<path d="M24.4464 29.0282C24.4464 29.4513 24.1035 29.7942 23.6804 29.7942C23.2574 29.7942 22.9145 29.4513 22.9145 29.0282C22.9145 28.6052 23.2574 28.2623 23.6804 28.2623C24.1035 28.2623 24.4464 28.6052 24.4464 29.0282Z" fill="#F7931A"/>
<path d="M26.929 29.0282C26.929 29.4513 26.586 29.7942 26.163 29.7942C25.74 29.7942 25.3971 29.4513 25.3971 29.0282C25.3971 28.6052 25.74 28.2623 26.163 28.2623C26.586 28.2623 26.929 28.6052 26.929 29.0282Z" fill="#F7931A"/>
</svg>
