<svg width="16" height="16" viewBox="0 0 16 16" fill="none" xmlns="http://www.w3.org/2000/svg">
<g clip-path="url(#clip0_214_320)">
<path d="M15.7607 9.89402C14.6917 14.1501 10.3507 16.7405 6.06401 15.6792C1.77912 14.618 -0.829548 10.307 0.239674 6.05115C1.3079 1.79459 5.64923 -0.796083 9.93445 0.265103C14.2206 1.32629 16.8291 5.63757 15.7607 9.89402Z" fill="#F7931A"/>
<path d="M5.36795 9.31066C5.32439 9.41791 5.21406 9.57891 4.96561 9.51777C4.97439 9.53035 4.32728 9.35965 4.32728 9.35965L3.89172 10.3573L5.03395 10.6401C5.24628 10.6929 5.45483 10.7481 5.65972 10.8004L5.29672 12.2489L6.1735 12.4662L6.53317 11.0331C6.77295 11.0976 7.00539 11.1573 7.23295 11.2134L6.8745 12.6398L7.75228 12.857L8.11561 11.4113C9.61261 11.6924 10.7383 11.579 11.2118 10.2347C11.5937 9.1522 11.1929 8.52776 10.4054 8.12048C10.9788 7.98917 11.4111 7.61444 11.5263 6.8407C11.6855 5.78337 10.8748 5.21521 9.7665 4.83606L10.1259 3.40401L9.24828 3.18674L8.89817 4.58106C8.66717 4.5239 8.43039 4.47005 8.19472 4.41675L8.54706 3.01317L7.66995 2.7959L7.31006 4.22773L5.53995 3.79231L5.30639 4.72329C5.30639 4.72329 5.95761 4.87148 5.94383 4.88075C6.29939 4.96892 6.3635 5.20252 6.35283 5.38768L5.36795 9.31066ZM9.52083 9.63364C9.24928 10.7162 7.41417 10.131 6.81883 9.98409L7.30083 8.0653C7.89583 8.21262 9.80417 8.50459 9.52083 9.63364ZM9.79195 6.82514C9.54461 7.80986 8.01695 7.30944 7.52139 7.18674L7.95828 5.44638C8.45372 5.56908 10.0498 5.79805 9.79195 6.82514Z" fill="white"/>
</g>
<defs>
<clipPath id="clip0_214_320">
<rect width="16" height="16" fill="white"/>
</clipPath>
</defs>
</svg>
