<svg width="32" height="33" viewBox="0 0 32 33" fill="none" xmlns="http://www.w3.org/2000/svg">
<path d="M21.4667 15.3294C26.8364 14.8332 30.674 20.451 28.1205 25.2517C25.815 29.5854 19.6865 30.0377 16.7536 26.0834C13.6456 21.9102 16.3159 15.8109 21.4813 15.3294H21.4667Z" fill="#F7931A"/>
<path d="M7.60465 4.80878H20.3869C20.956 4.98388 21.4667 5.50918 21.5834 6.09285C21.671 6.54519 21.671 8.03354 21.598 8.50047C21.4667 9.34678 20.6934 9.87208 19.8762 9.91586C16.0532 9.72617 11.9967 10.1639 8.2029 9.91586C7.45873 9.87208 6.75833 9.59484 6.4665 8.85067C6.26221 8.33996 6.26221 6.39927 6.43731 5.87397C6.59782 5.40704 7.10853 4.88174 7.61924 4.79419L7.60465 4.80878Z" fill="#F7931A"/>
<path d="M22.707 14.0745H21.1749C20.9414 14.0745 20.1243 14.3079 19.847 14.3809C18.6651 14.7165 17.6729 15.344 16.739 16.1173C14.3022 15.986 11.6465 16.307 9.22432 16.1173C8.52392 16.0589 7.8673 15.7963 7.57546 15.1105C7.342 14.5706 7.342 12.6007 7.54628 12.0462C7.61924 11.842 7.82352 11.4042 8.07158 11.4042H22.0796C22.313 11.375 22.7216 12.1922 22.7216 12.3235V14.0599L22.707 14.0745Z" fill="#F7931A"/>
<path d="M15.4695 17.6203C14.594 18.9919 14.0979 20.5678 14.1563 22.2166L13.9374 22.3334C10.9899 22.1583 7.76515 22.5668 4.84682 22.3334C4.17561 22.275 3.53358 21.9686 3.25633 21.3265C3.03746 20.8304 3.03746 19.1961 3.12501 18.6271C3.15419 18.4228 3.4898 17.6203 3.69408 17.6203H15.4695Z" fill="#F7931A"/>
<path d="M6.75833 28.5494C6.13089 28.4618 5.38672 27.8636 5.29917 27.207C5.2408 26.74 5.22621 25.1641 5.29917 24.6972C5.32835 24.5075 5.591 23.9384 5.7661 23.8655L14.3606 23.8363C14.6378 25.1058 15.2507 26.3315 16.1116 27.3091C16.491 27.7469 16.9871 28.0971 17.3811 28.5348H6.75833V28.5494Z" fill="#F7931A"/>
<path d="M21.4667 15.3294C26.8364 14.8332 30.674 20.451 28.1205 25.2517C25.815 29.5854 19.6865 30.0377 16.7536 26.0834C13.6456 21.9102 16.3159 15.8109 21.4813 15.3294H21.4667Z" stroke="#F7931A"/>
<path d="M7.60465 4.80878H20.3869C20.956 4.98388 21.4667 5.50918 21.5834 6.09285C21.671 6.54519 21.671 8.03354 21.598 8.50047C21.4667 9.34678 20.6934 9.87208 19.8762 9.91586C16.0532 9.72617 11.9967 10.1639 8.2029 9.91586C7.45873 9.87208 6.75833 9.59484 6.4665 8.85067C6.26221 8.33996 6.26221 6.39927 6.43731 5.87397C6.59782 5.40704 7.10853 4.88174 7.61924 4.79419L7.60465 4.80878Z" stroke="#F7931A"/>
<path d="M22.707 14.0745H21.1749C20.9414 14.0745 20.1243 14.3079 19.847 14.3809C18.6651 14.7165 17.6729 15.344 16.739 16.1173C14.3022 15.986 11.6465 16.307 9.22432 16.1173C8.52392 16.0589 7.8673 15.7963 7.57546 15.1105C7.342 14.5706 7.342 12.6007 7.54628 12.0462C7.61924 11.842 7.82352 11.4042 8.07158 11.4042H22.0796C22.313 11.375 22.7216 12.1922 22.7216 12.3235V14.0599L22.707 14.0745Z" stroke="#F7931A"/>
<path d="M15.4695 17.6203C14.594 18.9919 14.0979 20.5678 14.1563 22.2166L13.9374 22.3334C10.9899 22.1583 7.76515 22.5668 4.84682 22.3334C4.17561 22.275 3.53358 21.9686 3.25633 21.3265C3.03746 20.8304 3.03746 19.1961 3.12501 18.6271C3.15419 18.4228 3.4898 17.6203 3.69408 17.6203H15.4695Z" stroke="#F7931A"/>
<path d="M6.75833 28.5494C6.13089 28.4618 5.38672 27.8636 5.29917 27.207C5.2408 26.74 5.22621 25.1641 5.29917 24.6972C5.32835 24.5075 5.591 23.9384 5.7661 23.8655L14.3606 23.8363C14.6378 25.1058 15.2507 26.3315 16.1116 27.3091C16.491 27.7469 16.9871 28.0971 17.3811 28.5348H6.75833V28.5494Z" stroke="#F7931A"/>
</svg>
