<svg width="24" height="24" viewBox="0 0 24 24" fill="none" xmlns="http://www.w3.org/2000/svg">
<g clip-path="url(#clip0_4_6)">
<path d="M7.67 9.21C7.66749 9.17975 7.65901 9.15031 7.64506 9.12335C7.63111 9.0964 7.61196 9.07247 7.58873 9.05295C7.56549 9.03343 7.53861 9.0187 7.50965 9.00961C7.4807 9.00052 7.45023 8.99726 7.42 9C5.94314 9.01582 4.50383 9.46733 3.28257 10.2979C2.06131 11.1285 1.11246 12.3012 0.555028 13.6689C-0.00240538 15.0366 -0.143611 16.5384 0.14912 17.9861C0.441852 19.4337 1.15549 20.7627 2.20053 21.8064C3.24558 22.85 4.5755 23.5619 6.02353 23.8527C7.47155 24.1436 8.97321 24.0004 10.3402 23.4411C11.7072 22.8819 12.8786 21.9315 13.7075 20.7091C14.5365 19.4868 14.9861 18.0469 15 16.57C15.003 16.5122 14.9841 16.4553 14.947 16.4108C14.9099 16.3663 14.8574 16.3375 14.8 16.33C13.0369 15.9899 11.4158 15.1302 10.1452 13.8613C8.87459 12.5925 8.01258 10.9726 7.67 9.21ZM9.4 14.21C9.4 14.4089 9.32098 14.5997 9.18033 14.7403C9.03968 14.881 8.84891 14.96 8.65 14.96H6.75C6.61648 14.9626 6.48931 15.0175 6.39582 15.1129C6.30233 15.2082 6.24997 15.3365 6.25 15.47C6.24844 15.5705 6.27849 15.669 6.33591 15.7515C6.39332 15.8341 6.47521 15.8965 6.57 15.93L8.49 16.7C8.88313 16.8601 9.21512 17.1411 9.43795 17.5024C9.66077 17.8637 9.76287 18.2865 9.72946 18.7097C9.69605 19.1329 9.52887 19.5344 9.25212 19.8563C8.97536 20.1781 8.60338 20.4036 8.19 20.5C8.13541 20.5153 8.0873 20.5479 8.053 20.5931C8.0187 20.6382 8.00009 20.6933 8 20.75V21C8 21.1989 7.92098 21.3897 7.78033 21.5303C7.63968 21.671 7.44891 21.75 7.25 21.75C7.05109 21.75 6.86032 21.671 6.71967 21.5303C6.57902 21.3897 6.5 21.1989 6.5 21V20.83C6.5 20.7637 6.47366 20.7001 6.42678 20.6532C6.37989 20.6063 6.3163 20.58 6.25 20.58H5.85C5.65109 20.58 5.46032 20.501 5.31967 20.3603C5.17902 20.2197 5.1 20.0289 5.1 19.83C5.1 19.6311 5.17902 19.4403 5.31967 19.2997C5.46032 19.159 5.65109 19.08 5.85 19.08H7.75C7.88261 19.08 8.00979 19.0273 8.10355 18.9336C8.19732 18.8398 8.25 18.7126 8.25 18.58C8.25229 18.4807 8.2237 18.3831 8.16818 18.3007C8.11265 18.2183 8.03293 18.1552 7.94 18.12L6 17.34C5.62945 17.1924 5.31149 16.9374 5.08696 16.6078C4.86244 16.2781 4.74161 15.8889 4.74 15.49C4.7287 15.0277 4.87797 14.5757 5.1624 14.2111C5.44683 13.8464 5.84884 13.5916 6.3 13.49C6.35466 13.4784 6.40354 13.448 6.43823 13.4042C6.47291 13.3604 6.49122 13.3059 6.49 13.25V13.02C6.49 12.8211 6.56902 12.6303 6.70967 12.4897C6.85032 12.349 7.04109 12.27 7.24 12.27C7.43891 12.27 7.62968 12.349 7.77033 12.4897C7.91098 12.6303 7.99 12.8211 7.99 13.02V13.18C7.99 13.2463 8.01634 13.3099 8.06322 13.3568C8.11011 13.4037 8.1737 13.43 8.24 13.43H8.64C8.74326 13.4299 8.84547 13.4508 8.94038 13.4914C9.0353 13.5321 9.12093 13.5917 9.19205 13.6666C9.26317 13.7414 9.31829 13.83 9.35405 13.9269C9.3898 14.0237 9.40543 14.1269 9.4 14.23V14.21Z" fill="currentColor"/>
<path d="M16.5 0C15.0166 0 13.5666 0.439867 12.3332 1.26398C11.0999 2.08809 10.1386 3.25943 9.5709 4.62987C9.00325 6.00032 8.85472 7.50832 9.14411 8.96318C9.4335 10.418 10.1478 11.7544 11.1967 12.8033C12.2456 13.8522 13.582 14.5665 15.0368 14.8559C16.4917 15.1453 17.9997 14.9968 19.3701 14.4291C20.7406 13.8614 21.9119 12.9001 22.736 11.6668C23.5601 10.4334 24 8.98336 24 7.5C24 5.51088 23.2098 3.60322 21.8033 2.1967C20.3968 0.790176 18.4891 0 16.5 0ZM16.5 13.21C16.3019 13.2074 16.1126 13.1276 15.9725 12.9875C15.8324 12.8474 15.7526 12.6581 15.75 12.46V12C15.75 11.9337 15.7237 11.8701 15.6768 11.8232C15.6299 11.7763 15.5663 11.75 15.5 11.75H14.75C14.5511 11.75 14.3603 11.671 14.2197 11.5303C14.079 11.3897 14 11.1989 14 11C14 10.8011 14.079 10.6103 14.2197 10.4697C14.3603 10.329 14.5511 10.25 14.75 10.25H17.12C17.3375 10.25 17.546 10.1636 17.6998 10.0098C17.8536 9.85605 17.94 9.64748 17.94 9.43C17.9401 9.26688 17.8904 9.10763 17.7974 8.97358C17.7045 8.83953 17.5728 8.73709 17.42 8.68L15.02 7.68C14.589 7.51241 14.2189 7.21827 13.9583 6.8363C13.6977 6.45432 13.5588 6.0024 13.56 5.54C13.5619 4.98148 13.7652 4.44239 14.1326 4.02172C14.5 3.60105 15.0068 3.32703 15.56 3.25C15.6164 3.2381 15.6667 3.20629 15.7016 3.16038C15.7364 3.11448 15.7536 3.05754 15.75 3V2.5C15.75 2.30109 15.829 2.11032 15.9697 1.96967C16.1103 1.82902 16.3011 1.75 16.5 1.75C16.6989 1.75 16.8897 1.82902 17.0303 1.96967C17.171 2.11032 17.25 2.30109 17.25 2.5V3C17.25 3.0663 17.2763 3.12989 17.3232 3.17678C17.3701 3.22366 17.4337 3.25 17.5 3.25H18.25C18.4489 3.25 18.6397 3.32902 18.7803 3.46967C18.921 3.61032 19 3.80109 19 4C19 4.19891 18.921 4.38968 18.7803 4.53033C18.6397 4.67098 18.4489 4.75 18.25 4.75H15.88C15.6625 4.75 15.454 4.83639 15.3002 4.99017C15.1464 5.14395 15.06 5.35252 15.06 5.57C15.0599 5.73312 15.1096 5.89237 15.2026 6.02642C15.2955 6.16047 15.4272 6.26291 15.58 6.32L17.98 7.32C18.411 7.48759 18.7811 7.78173 19.0417 8.1637C19.3023 8.54568 19.4412 8.9976 19.44 9.46C19.4381 10.0185 19.2348 10.5576 18.8674 10.9783C18.5 11.399 17.9932 11.673 17.44 11.75C17.3817 11.7573 17.3281 11.7858 17.2894 11.8301C17.2507 11.8743 17.2295 11.9312 17.23 11.99V12.49C17.2202 12.6795 17.1398 12.8584 17.0047 12.9916C16.8696 13.1249 16.6896 13.2028 16.5 13.21Z" fill="currentColor"/>
</g>
<defs>
<clipPath id="clip0_4_6">
<rect width="24" height="24" fill="white"/>
</clipPath>
</defs>
</svg>
