<svg width="21" height="21" viewBox="0 0 21 21" fill="none" xmlns="http://www.w3.org/2000/svg">
<path d="M9.54123 8.76613C9.54123 10.0899 11.6875 11.1631 14.3351 11.1631C16.9826 11.1631 19.1289 10.0899 19.1289 8.76613M9.54123 8.76613C9.54123 7.44235 11.6875 6.36922 14.3351 6.36922C16.9826 6.36922 19.1289 7.44235 19.1289 8.76613M9.54123 8.76613V16.4363M19.1289 8.76613V16.4363C19.1289 17.76 16.9826 18.8332 14.3351 18.8332C11.6875 18.8332 9.54123 17.76 9.54123 16.4363M9.54123 12.6012C9.54123 13.925 11.6875 14.9981 14.3351 14.9981C16.9826 14.9981 19.1289 13.925 19.1289 12.6012M1.87109 7.80737C1.87109 9.13114 4.01737 10.2043 6.66493 10.2043C7.74434 10.2043 8.74037 10.026 9.54171 9.7249M1.87109 11.1631C1.87109 12.4868 4.01737 13.56 6.66493 13.56C7.74413 13.56 8.73999 13.3816 9.54123 13.0808M1.87109 3.9723V14.5187C1.87109 15.8425 4.01737 16.9157 6.66493 16.9157C7.74415 16.9157 8.73999 16.7372 9.54123 16.4363M1.87109 3.9723C1.87109 5.29608 4.01737 6.36922 6.66493 6.36922C9.31247 6.36922 11.4588 5.29608 11.4588 3.9723M1.87109 3.9723C1.87109 2.64852 4.01737 1.57538 6.66493 1.57538C9.31247 1.57538 11.4588 2.64852 11.4588 3.9723M11.4588 6.8486V3.9723" stroke="#F7931A" stroke-width="0.833333" stroke-linecap="round" stroke-linejoin="round"/>
</svg>
