<svg width="21" height="20" viewBox="0 0 21 20" fill="none" xmlns="http://www.w3.org/2000/svg">
<path d="M17.8381 6.65843C16.5489 3.70801 13.6049 1.64612 10.1793 1.64612C5.84754 1.64612 2.28583 4.94312 1.8667 9.16459M15.7777 6.65843H18.032C18.3088 6.65843 18.5332 6.43402 18.5332 6.1572V3.90293M2.56186 13.3415C3.85096 16.2919 6.79499 18.3538 10.2206 18.3538C14.5523 18.3538 18.1141 15.0568 18.5332 10.8354M4.89427 13.3415H2.36793C2.09111 13.3415 1.8667 13.5659 1.8667 13.8427V16.3691H1.86764M12.6057 7.19442C12.0567 6.64535 11.0897 6.26344 10.201 6.23952M10.201 6.23952C9.14362 6.21107 8.19708 6.68942 8.19708 7.99602C8.19708 10.4008 12.6057 9.19841 12.6057 11.6031C12.6057 12.9747 11.4324 13.5639 10.201 13.5197M10.201 6.23952V4.78969M7.79629 12.4047C8.3129 13.0935 9.27341 13.4864 10.201 13.5197M10.201 13.5197V15.2102" stroke="#329239" stroke-linecap="round" stroke-linejoin="round"/>
</svg>
