<svg width="20" height="21" viewBox="0 0 20 21" fill="none" xmlns="http://www.w3.org/2000/svg">
<path d="M1.60938 11.7645L3.07048 11.5745L3.20278 12.5896M1.60938 18.6317L3.91792 18.0765L3.8041 17.2032M3.20278 12.5896L3.76724 12.394C4.94764 11.9849 6.22739 11.9607 7.42238 12.325L13.0096 14.0283C13.0752 14.0483 13.1381 14.0761 13.1969 14.1112C13.5215 14.3047 13.649 14.6478 13.6022 14.9653M3.20278 12.5896L3.8041 17.2032M8.11131 15.2565L12.6523 15.6937C12.7605 15.7041 12.8697 15.6939 12.9742 15.6636L12.9984 15.6566C13.3489 15.5551 13.5569 15.2721 13.6022 14.9653M3.8041 17.2032C4.89908 16.9816 6.0347 17.0797 7.07544 17.4858L8.00091 17.847C9.45646 18.415 11.0778 18.3829 12.5097 17.7578L17.8184 15.4402C18.0842 15.3241 18.2828 15.0933 18.3578 14.8132C18.4941 14.3045 18.1923 13.7817 17.6837 13.6455L17.6315 13.6315C17.4266 13.5766 17.2096 13.5878 17.0114 13.6634L13.6022 14.9653M13.6022 14.9653L13.5085 15.0011M12.6502 4.81376C12.326 4.48957 11.7551 4.26408 11.2304 4.24996M11.2304 4.24996C10.606 4.23316 10.0472 4.51559 10.0472 5.28705C10.0472 6.70688 12.6502 5.99697 12.6502 7.4168C12.6502 8.22659 11.9574 8.57452 11.2304 8.5484M11.2304 4.24996V3.39393M9.81054 7.89007C10.1156 8.29676 10.6827 8.52871 11.2304 8.5484M11.2304 8.5484V9.54653M15.9239 6.47022C15.9239 9.06237 13.8226 11.1637 11.2304 11.1637C8.63828 11.1637 6.53694 9.06237 6.53694 6.47022C6.53694 3.87808 8.63828 1.77673 11.2304 1.77673C13.8226 1.77673 15.9239 3.87808 15.9239 6.47022Z" stroke="#1079DA" stroke-width="0.833333" stroke-linecap="round" stroke-linejoin="round"/>
</svg>
