<svg width="32" height="33" viewBox="0 0 32 33" fill="none" xmlns="http://www.w3.org/2000/svg">
<path fill-rule="evenodd" clip-rule="evenodd" d="M16.7414 4.79419L18.4942 5.05327C27.2097 6.90727 31.0325 17.5074 25.2294 24.4605C18.7449 32.228 6.33629 28.9867 4.25884 19.2481L4.00945 17.5473C4.01898 17.2908 4.01289 17.0328 4.00681 16.7886C4.00036 16.5297 3.9947 16.2842 4.00857 16.0457C4.35042 10.1997 9.16403 5.29666 14.9737 4.81358L15.2512 4.79419H16.7414ZM17.3477 14.7864C16.0873 13.3113 13.9544 13.1986 12.5018 14.4383C11.7137 15.1111 10.4502 16.3546 9.6352 17.2609L9.31619 17.6266C6.76968 20.6414 10.5115 24.8582 13.7866 22.6804C13.966 22.5612 14.3487 22.2166 14.6917 21.8873C14.8678 21.7182 15.0419 21.5451 15.1852 21.3947C15.322 21.251 15.4488 21.1097 15.5147 21.0114C15.7984 20.588 15.7047 20.1083 15.3914 19.8323C15.0763 19.5548 14.5876 19.5206 14.1717 19.8411C13.8412 20.096 13.5405 20.464 13.2808 20.7417C13.0015 21.0404 12.7491 21.2623 12.4639 21.3586C10.8657 21.8993 9.64321 20.1288 10.6557 18.8154C11.1922 18.3502 11.7007 17.7937 12.1925 17.26C12.6986 16.7108 13.1887 16.1848 13.7012 15.7646C14.4819 15.1242 15.6603 15.3002 16.1492 16.1664C16.197 16.2515 16.2364 16.3826 16.2973 16.57C16.3245 16.6539 16.3558 16.7472 16.3933 16.8326C16.4292 16.9145 16.4815 17.0142 16.559 17.0952C16.7512 17.2955 17.0218 17.3719 17.2657 17.3561C17.5103 17.3401 17.772 17.2284 17.9355 16.9948L17.9822 16.9199C18.0785 16.7417 18.0956 16.5421 18.0809 16.3638C18.0638 16.1584 18.0016 15.9476 17.924 15.7549C17.7692 15.3704 17.5295 14.999 17.3477 14.7864ZM22.7108 15.9417C24.7538 13.4895 22.7106 10.0073 19.5587 10.3856C19.1584 10.4335 18.6658 10.6341 18.3426 10.8279C18.2416 10.8887 18.0848 11.0156 17.9231 11.1549C17.7537 11.3009 17.5555 11.4803 17.3627 11.6616C17.17 11.8427 16.9798 12.028 16.826 12.1868C16.718 12.2983 16.613 12.4113 16.5405 12.504L16.4797 12.5895C16.1026 13.1961 16.5061 14.0387 17.2922 13.9818C17.4133 13.9731 17.5234 13.9259 17.6112 13.877C17.7022 13.8262 17.793 13.7607 17.8791 13.6902C18.0508 13.5495 18.2335 13.3661 18.4078 13.187C18.5873 13.0025 18.7565 12.8229 18.9171 12.6662C19.0814 12.506 19.2097 12.3978 19.2987 12.3472C20.8445 11.4685 22.4572 13.3535 21.3678 14.7538C20.8326 15.2198 20.326 15.7762 19.8345 16.3092C19.3285 16.8579 18.8375 17.3834 18.325 17.8055C17.5787 18.4195 16.4173 18.2503 15.9236 17.438C15.8759 17.3594 15.8356 17.2556 15.7862 17.1172C15.7411 16.9913 15.6857 16.8293 15.6117 16.6881C15.5363 16.5444 15.4221 16.3828 15.2354 16.2845C15.0414 16.1824 14.8193 16.1744 14.5824 16.2369C14.3754 16.2916 14.2083 16.3998 14.0977 16.5612C13.9909 16.7173 13.9572 16.893 13.955 17.0494C13.9507 17.3513 14.0637 17.669 14.1453 17.8751C14.9243 19.8407 17.4261 20.5689 19.1709 19.4093L19.1991 19.3899L19.2229 19.3661C19.7538 18.8208 20.3662 18.2723 20.9827 17.7006C21.594 17.1339 22.2062 16.547 22.7108 15.9417Z" fill="#F7931A"/>
</svg>
