<svg width="40" height="40" viewBox="0 0 40 40" fill="none" xmlns="http://www.w3.org/2000/svg">
<g clip-path="url(#clip0_488_124)">
<path d="M20 40C31.0834 40 40 31.0834 40 20C40 8.9166 31.0834 0 20 0C8.9166 0 0 8.9166 0 20C0 31.0834 8.9166 40 20 40Z" fill="#006B46"/>
<path d="M25.5001 23.1665C25.5001 20.2499 23.7501 19.2499 20.2501 18.8333C17.7501 18.4999 17.2501 17.8333 17.2501 16.6665C17.2501 15.4997 18.0835 14.7499 19.7501 14.7499C21.2501 14.7499 22.0835 15.2499 22.5001 16.4999C22.5835 16.7499 22.8335 16.9165 23.0835 16.9165H24.4167C24.7501 16.9165 25.0001 16.6665 25.0001 16.3333V16.2499C24.6667 14.4165 23.1667 12.9999 21.2501 12.8333V10.8333C21.2501 10.4999 21.0001 10.2499 20.5835 10.1665H19.3335C19.0001 10.1665 18.7501 10.4165 18.6667 10.8333V12.7499C16.1667 13.0833 14.5835 14.7499 14.5835 16.8333C14.5835 19.5833 16.2501 20.6665 19.7501 21.0833C22.0835 21.4999 22.8335 21.9999 22.8335 23.3333C22.8335 24.6667 21.6667 25.5833 20.0835 25.5833C17.9167 25.5833 17.1667 24.6665 16.9167 23.4165C16.8335 23.0833 16.5835 22.9165 16.3335 22.9165H14.9167C14.5835 22.9165 14.3335 23.1665 14.3335 23.4999V23.5833C14.6667 25.6665 16.0001 27.1665 18.7501 27.5833V29.5833C18.7501 29.9165 19.0001 30.1665 19.4167 30.2499H20.6667C21.0001 30.2499 21.2501 29.9999 21.3335 29.5833V27.5833C23.8335 27.1665 25.5001 25.4165 25.5001 23.1665Z" fill="white"/>
</g>
<defs>
<clipPath id="clip0_488_124">
<rect width="40" height="40" fill="white"/>
</clipPath>
</defs>
</svg>
