<svg width="58" height="76" viewBox="0 0 58 76" fill="none" xmlns="http://www.w3.org/2000/svg">
  <path
    d="M11.0717 48.8607C10.745 49.6651 9.9175 50.8726 8.05416 50.4141C8.12 50.5084 3.26667 49.2281 3.26667 49.2281L0 56.7103L8.56667 58.8314C10.1592 59.2279 11.7233 59.6417 13.26 60.0339L10.5375 70.8977L17.1133 72.5272L19.8108 61.7793C21.6092 62.2626 23.3525 62.7103 25.0592 63.1316L22.3708 73.829L28.9542 75.4585L31.6792 64.6154C42.9067 66.7241 51.3492 65.8734 54.9008 55.7909C57.765 47.6723 54.7592 42.989 48.8525 39.9343C53.1533 38.9495 56.395 36.139 57.2592 30.336C58.4533 22.4061 52.3733 18.1448 44.0608 15.3012L46.7567 4.56083L40.1742 2.93131L37.5483 13.3887C35.8158 12.96 34.04 12.5561 32.2725 12.1564L34.915 1.62952L28.3367 0L25.6375 10.7388L12.3617 7.47311L10.61 14.4554C10.61 14.4554 15.4942 15.5669 15.3908 15.6364C18.0575 16.2977 18.5383 18.0497 18.4583 19.4383L11.0717 48.8607ZM42.2183 51.283C40.1817 59.4025 26.4183 55.013 21.9533 53.9114L25.5683 39.5205C30.0308 40.6254 44.3433 42.8152 42.2183 51.283ZM44.2517 30.2193C42.3967 37.6047 30.9392 33.8516 27.2225 32.9313L30.4992 19.8786C34.215 20.7989 46.1858 22.5161 44.2517 30.2193Z"
    fill="white" />
</svg>