<svg width="58" height="76" viewBox="0 0 58 76" fill="none" xmlns="http://www.w3.org/2000/svg">
  <path
    d="M34.3066 1.99414L31.7871 12.0352L31.6631 12.5312L32.1621 12.6445C33.9299 13.0443 35.7017 13.4467 37.4287 13.874L37.9121 13.9941L38.0332 13.5107L40.5371 3.53613L46.1494 4.9248L43.5762 15.1797L43.4639 15.626L43.8994 15.7744C48.0313 17.1879 51.5424 18.9339 53.8711 21.2646C56.1747 23.5703 57.3369 26.4617 56.7646 30.2617V30.2627C56.3445 33.0834 55.3539 35.1364 53.9805 36.5996C52.6063 38.0635 50.8164 38.9721 48.7412 39.4473L47.4102 39.752L48.623 40.3789C51.52 41.8771 53.6393 43.7409 54.708 46.165C55.7735 48.5822 55.8336 51.6454 54.4297 55.625C52.7014 60.5311 49.8142 63.1383 46.0225 64.2969C42.1855 65.4693 37.3684 65.1752 31.7715 64.124L31.3086 64.0371L31.1943 64.4932L28.5908 74.8525L22.9775 73.4639L25.5439 63.2539L25.666 62.7666L25.1787 62.6465C23.4752 62.226 21.7352 61.7792 19.9404 61.2969L19.4492 61.1641L19.3262 61.6572L16.749 71.9219L11.1436 70.5322L13.7451 60.1553L13.8662 59.6729L13.3838 59.5498C11.8536 59.1592 10.281 58.7433 8.6875 58.3467L8.68652 58.3457L0.694336 56.3662L3.55273 49.8193C3.65344 49.8457 3.76938 49.8767 3.89746 49.9102C4.35188 50.0288 4.95787 50.1864 5.56152 50.3408C6.16448 50.4951 6.76821 50.6472 7.21777 50.7549C7.44138 50.8084 7.63193 50.8522 7.7666 50.8799C7.83142 50.8932 7.89534 50.9054 7.94629 50.9121C7.95634 50.9134 7.97702 50.9124 8.00293 50.9141C9.0331 51.1505 9.83559 50.9447 10.4307 50.5176C11.0176 50.0962 11.3532 49.497 11.5352 49.0488L11.5479 49.0166L11.5566 48.9824L18.9434 19.5605L18.9551 19.5146L18.957 19.4668C19.0007 18.7085 18.8948 17.8072 18.376 16.9951C17.8597 16.1872 16.9747 15.5305 15.5859 15.1709C15.5642 15.1605 15.548 15.151 15.5391 15.1475C15.4874 15.1269 15.4222 15.106 15.3584 15.0869C15.2248 15.0469 15.0343 14.9957 14.8115 14.9385C14.3635 14.8233 13.7588 14.6766 13.1543 14.5332C12.5491 14.3897 11.9411 14.248 11.4844 14.1426C11.3888 14.1205 11.2997 14.0997 11.2188 14.0811L12.7246 8.07715L25.5186 11.2246L26.001 11.3428L26.1221 10.8604L28.6992 0.604492L34.3066 1.99414ZM25.083 39.3984L21.4688 53.79L21.3457 54.2764L21.834 54.3965C24.0296 54.9382 28.6553 56.3313 32.9707 56.5547C35.1305 56.6665 37.2708 56.4898 39.0195 55.7324C40.7939 54.9638 42.1525 53.5995 42.7031 51.4043C43.2739 49.1293 42.7364 47.247 41.5332 45.7188C40.3485 44.2141 38.5359 43.0707 36.5693 42.1846C32.6441 40.4158 27.8695 39.5751 25.6885 39.0352L25.2051 38.915L25.083 39.3984ZM30.0146 19.7568L26.7373 32.8096L26.6152 33.2959L27.1025 33.417C28.9203 33.8671 32.7889 35.0569 36.417 35.1895C38.2349 35.2559 40.0503 35.0615 41.5479 34.3389C43.0695 33.6045 44.2352 32.3361 44.7363 30.3408C45.2554 28.2732 44.842 26.5696 43.8467 25.1904C42.8674 23.8336 41.3495 22.8231 39.7061 22.0527C36.4316 20.5179 32.4216 19.84 30.6191 19.3936L30.1357 19.2734L30.0146 19.7568Z"
    stroke="#F7931A" />
</svg>