<svg width="80" height="18" viewBox="0 0 80 18" fill="none" xmlns="http://www.w3.org/2000/svg" stroke="currentColor" stroke-width="0.1" id="bitmor-footer">
<path d="M0 17.6538V14.7857H2.31916V3.21429H0V0.346154H9.07498C10.1505 0.346154 11.0832 0.527473 11.8731 0.89011C12.6798 1.23626 13.3016 1.73901 13.7385 2.39835C14.1923 3.04121 14.4191 3.81593 14.4191 4.72253V4.96978C14.4191 5.76099 14.2679 6.41209 13.9654 6.92308C13.6629 7.41758 13.3016 7.80494 12.8814 8.08516C12.4781 8.3489 12.0916 8.53846 11.7218 8.65385V9.0989C12.0916 9.1978 12.4949 9.38736 12.9318 9.66758C13.3688 9.93132 13.7385 10.3187 14.041 10.8297C14.3603 11.3407 14.52 12.0082 14.52 12.8324V13.0797C14.52 14.0357 14.2931 14.8599 13.8393 15.5522C13.3856 16.228 12.7554 16.7473 11.9487 17.1099C11.1589 17.4725 10.2346 17.6538 9.17581 17.6538H0ZM5.64665 14.6868H8.77248C9.49511 14.6868 10.0749 14.5137 10.5118 14.1676C10.9656 13.8214 11.1925 13.3269 11.1925 12.6841V12.4368C11.1925 11.794 10.974 11.2994 10.5371 10.9533C10.1001 10.6071 9.51192 10.4341 8.77248 10.4341H5.64665V14.6868ZM5.64665 7.46703H8.72206C9.41109 7.46703 9.97407 7.29396 10.411 6.9478C10.8648 6.60165 11.0916 6.12363 11.0916 5.51374V5.26648C11.0916 4.64011 10.8732 4.16209 10.4362 3.83242C9.99928 3.48626 9.42789 3.31319 8.72206 3.31319H5.64665V7.46703Z" id="bitmor-b" />
<path d="M17.3449 17.6538V5.39011H20.5211V17.6538H17.3449ZM18.933 3.95604C18.3616 3.95604 17.8742 3.77473 17.4709 3.41209C17.0844 3.04945 16.8911 2.57143 16.8911 1.97802C16.8911 1.38462 17.0844 0.906594 17.4709 0.543956C17.8742 0.181319 18.3616 0 18.933 0C19.5212 0 20.0085 0.181319 20.3951 0.543956C20.7816 0.906594 20.9749 1.38462 20.9749 1.97802C20.9749 2.57143 20.7816 3.04945 20.3951 3.41209C20.0085 3.77473 19.5212 3.95604 18.933 3.95604Z" id="bitmor-i" />
<path d="M28.8304 17.6538C28.0069 17.6538 27.3347 17.4066 26.8137 16.9121C26.3095 16.4011 26.0575 15.7253 26.0575 14.8846V7.96154H22.9316V5.39011H26.0575V1.58242H29.2337V5.39011H32.662V7.96154H29.2337V14.3407C29.2337 14.8352 29.469 15.0824 29.9395 15.0824H32.3595V17.6538H28.8304Z" id="bitmor-t" />
<path d="M35.5372 17.6538V5.39011H38.663V6.72527H39.1167C39.3352 6.31319 39.6965 5.95879 40.2007 5.66209C40.7048 5.3489 41.3687 5.19231 42.1921 5.19231C43.0828 5.19231 43.7971 5.36538 44.3348 5.71154C44.8726 6.04121 45.2844 6.47802 45.57 7.02198H46.0238C46.3095 6.49451 46.7128 6.05769 47.2338 5.71154C47.7548 5.36538 48.4942 5.19231 49.4521 5.19231C50.2252 5.19231 50.9226 5.35714 51.5444 5.68681C52.183 6 52.6872 6.48626 53.0569 7.1456C53.4434 7.78846 53.6367 8.6044 53.6367 9.59341V17.6538H50.4604V9.81593C50.4604 9.14011 50.284 8.63736 49.9311 8.30769C49.5782 7.96154 49.0824 7.78846 48.4438 7.78846C47.7211 7.78846 47.1582 8.01923 46.7548 8.48077C46.3683 8.92582 46.175 9.56868 46.175 10.4093V17.6538H42.9988V9.81593C42.9988 9.14011 42.8223 8.63736 42.4694 8.30769C42.1165 7.96154 41.6208 7.78846 40.9821 7.78846C40.2595 7.78846 39.6965 8.01923 39.2932 8.48077C38.9067 8.92582 38.7134 9.56868 38.7134 10.4093V17.6538H35.5372Z" id="bitmor-m" />
<path d="M63.002 18C61.7583 18 60.6408 17.7527 59.6493 17.2582C58.6577 16.7637 57.8763 16.0467 57.3049 15.1071C56.7335 14.1676 56.4478 13.0385 56.4478 11.7198V11.3242C56.4478 10.0055 56.7335 8.87637 57.3049 7.93681C57.8763 6.99725 58.6577 6.28022 59.6493 5.78571C60.6408 5.29121 61.7583 5.04396 63.002 5.04396C64.2456 5.04396 65.3631 5.29121 66.3547 5.78571C67.3462 6.28022 68.1276 6.99725 68.699 7.93681C69.2704 8.87637 69.5561 10.0055 69.5561 11.3242V11.7198C69.5561 13.0385 69.2704 14.1676 68.699 15.1071C68.1276 16.0467 67.3462 16.7637 66.3547 17.2582C65.3631 17.7527 64.2456 18 63.002 18ZM63.002 15.2308C63.9767 15.2308 64.7833 14.9258 65.4219 14.3159C66.0606 13.6896 66.3799 12.7994 66.3799 11.6456V11.3984C66.3799 10.2445 66.0606 9.36264 65.4219 8.75275C64.8001 8.12637 63.9935 7.81319 63.002 7.81319C62.0272 7.81319 61.2206 8.12637 60.582 8.75275C59.9433 9.36264 59.624 10.2445 59.624 11.3984V11.6456C59.624 12.7994 59.9433 13.6896 60.582 14.3159C61.2206 14.9258 62.0272 15.2308 63.002 15.2308Z" id="bitmor-o" />
<path d="M72.4879 17.6538V5.39011H75.6138V6.77472H76.0675C76.2524 6.28022 76.5549 5.91758 76.975 5.68681C77.412 5.45604 77.9161 5.34066 78.4875 5.34066H80V8.10989H78.4371C77.6304 8.10989 76.9666 8.32418 76.4456 8.75275C75.9247 9.16483 75.6642 9.80769 75.6642 10.6813V17.6538H72.4879Z" id="bitmor-r" />
</svg>
