<svg width="40" height="297" viewBox="0 0 40 297" fill="none" xmlns="http://www.w3.org/2000/svg">
<rect y="0.26416" width="40" height="40" rx="20" fill="#F7931A"/>
<path d="M26.2227 16.3753V14.8197C26.2227 13.9618 25.525 13.2642 24.6671 13.2642H14.556C13.2695 13.2642 12.2227 14.311 12.2227 15.5975V24.9308C12.2227 26.6427 13.618 27.2642 14.556 27.2642H26.2227C27.0805 27.2642 27.7782 26.5665 27.7782 25.7086V17.9308C27.7782 17.0729 27.0805 16.3753 26.2227 16.3753ZM24.6671 23.3753H23.1115V20.2642H24.6671V23.3753ZM14.556 16.3753C14.3557 16.3663 14.1666 16.2805 14.0281 16.1356C13.8895 15.9907 13.8122 15.798 13.8122 15.5975C13.8122 15.397 13.8895 15.2043 14.0281 15.0594C14.1666 14.9145 14.3557 14.8287 14.556 14.8197H24.6671V16.3753H14.556Z" fill="black"/>
<path d="M18 48.8742C18 48.5372 18.8954 48.2641 20 48.2641C21.1046 48.2641 22 48.5372 22 48.8742L22 76.9873C22 77.3243 21.1046 77.5974 20 77.5974C18.8954 77.5974 18 77.3243 18 76.9873L18 48.8742Z" fill="url(#paint0_linear_408_8252)"/>
<path d="M0 105.597C0 94.5517 8.95431 85.5974 20 85.5974C31.0457 85.5974 40 94.5517 40 105.597C40 116.643 31.0457 125.597 20 125.597C8.95431 125.597 0 116.643 0 105.597Z" fill="#F7931A"/>
<path d="M26.763 101.253H25.2229L21.4441 105.03C21.5743 105.361 21.5863 105.728 21.478 106.067C21.3698 106.407 21.148 106.699 20.8499 106.894C20.5518 107.089 20.1956 107.175 19.8411 107.139C19.4867 107.102 19.1557 106.945 18.9038 106.693C18.6518 106.441 18.4943 106.11 18.4577 105.755C18.4211 105.401 18.5077 105.045 18.7028 104.747C18.898 104.449 19.1899 104.227 19.5293 104.119C19.8688 104.01 20.2352 104.022 20.5669 104.152L24.3448 100.375V98.8344C24.3449 98.6283 24.4268 98.4307 24.5724 98.2849L26.0041 96.8531C26.0306 96.8264 26.0638 96.8074 26.1003 96.7982C26.1368 96.789 26.1751 96.79 26.211 96.801C26.2847 96.8225 26.3393 96.8838 26.3542 96.9591L26.7349 98.8633L28.6383 99.244C28.7128 99.2589 28.7741 99.3136 28.7956 99.3872C28.8065 99.423 28.8074 99.461 28.7984 99.4973C28.7893 99.5336 28.7706 99.5668 28.7443 99.5933L27.3117 101.025C27.2397 101.097 27.1542 101.154 27.06 101.193C26.9659 101.232 26.865 101.253 26.763 101.253Z" fill="black"/>
<path d="M12.2414 105.597C12.2414 107.655 13.0588 109.629 14.5138 111.084C15.9688 112.539 17.9423 113.356 20 113.356C21.0189 113.356 22.0278 113.155 22.9691 112.765C23.9104 112.376 24.7657 111.804 25.4862 111.084C26.2066 110.363 26.7781 109.508 27.168 108.567C27.5579 107.625 27.7586 106.616 27.7586 105.597C27.7586 104.854 27.6543 104.136 27.4599 103.456C27.4212 103.3 27.4446 103.136 27.525 102.996C27.6055 102.857 27.7368 102.755 27.8913 102.71C28.0458 102.666 28.2115 102.684 28.3534 102.759C28.4954 102.834 28.6026 102.962 28.6524 103.115C28.8792 103.904 29 104.737 29 105.597C29 110.568 24.9705 114.597 20 114.597C15.0295 114.597 11 110.568 11 105.597C11 100.627 15.0295 96.5974 20 96.5974C20.84 96.5966 21.675 96.7133 22.4828 96.9442C22.5615 96.9663 22.6351 97.0037 22.6994 97.0543C22.7636 97.105 22.8172 97.1678 22.8571 97.2392C22.8969 97.3107 22.9223 97.3892 22.9317 97.4705C22.9411 97.5518 22.9343 97.6341 22.9118 97.7127C22.8893 97.7913 22.8515 97.8647 22.8005 97.9287C22.7495 97.9927 22.6864 98.0459 22.6147 98.0854C22.5431 98.1249 22.4644 98.1498 22.383 98.1588C22.3017 98.1677 22.2195 98.1605 22.141 98.1376C21.4447 97.9387 20.7241 97.8382 20 97.8388C17.9423 97.8388 15.9688 98.6562 14.5138 100.111C13.0588 101.566 12.2414 103.54 12.2414 105.597Z" fill="black"/>
<path d="M15.9655 105.597C15.9678 106.146 16.0818 106.687 16.3006 107.19C16.5193 107.693 16.8382 108.145 17.2377 108.521C17.6373 108.896 18.1091 109.186 18.6244 109.373C19.1397 109.559 19.6877 109.639 20.2349 109.607C20.7821 109.575 21.3171 109.432 21.807 109.186C22.297 108.941 22.7318 108.598 23.0848 108.178C23.4379 107.759 23.7017 107.272 23.8603 106.747C24.0189 106.223 24.0688 105.671 24.0072 105.127C23.9898 105.016 24.0026 104.903 24.0442 104.8C24.0858 104.696 24.1546 104.606 24.2434 104.538C24.3322 104.47 24.4377 104.428 24.5486 104.415C24.6596 104.402 24.7719 104.42 24.8737 104.466C25.0814 104.559 25.2212 104.757 25.2394 104.983C25.3679 106.072 25.1541 107.173 24.6278 108.135C24.1014 109.096 23.2886 109.87 22.3023 110.348C21.3161 110.826 20.2053 110.985 19.1246 110.802C18.0438 110.62 17.0466 110.106 16.2717 109.331C15.497 108.556 14.9824 107.56 14.7994 106.48C14.6163 105.4 14.7738 104.29 15.2501 103.304C15.7263 102.318 16.4977 101.504 17.4572 100.976C18.4167 100.448 19.5169 100.231 20.605 100.356C20.6872 100.364 20.7671 100.388 20.84 100.427C20.9129 100.466 20.9772 100.519 21.0293 100.583C21.0814 100.647 21.1202 100.721 21.1434 100.8C21.1666 100.88 21.1737 100.963 21.1643 101.045C21.1549 101.127 21.1293 101.206 21.0888 101.278C21.0484 101.35 20.994 101.413 20.9288 101.464C20.8636 101.515 20.7889 101.552 20.7092 101.574C20.6294 101.595 20.5461 101.601 20.4643 101.589C19.8991 101.524 19.3264 101.579 18.7839 101.751C18.2414 101.922 17.7413 102.207 17.3165 102.585C16.8917 102.964 16.5517 103.428 16.3188 103.947C16.086 104.466 15.9656 105.028 15.9655 105.597Z" fill="black"/>
<path d="M26.763 101.253H25.2229L21.4441 105.03C21.5743 105.361 21.5863 105.728 21.478 106.067C21.3698 106.407 21.148 106.699 20.8499 106.894C20.5518 107.089 20.1956 107.175 19.8411 107.139C19.4867 107.102 19.1557 106.945 18.9038 106.693C18.6518 106.441 18.4943 106.11 18.4577 105.755C18.4211 105.401 18.5077 105.045 18.7028 104.747C18.898 104.449 19.1899 104.227 19.5293 104.119C19.8688 104.01 20.2352 104.022 20.5669 104.152L24.3448 100.375V98.8344C24.3449 98.6283 24.4268 98.4307 24.5724 98.2849L26.0041 96.8531C26.0306 96.8264 26.0638 96.8074 26.1003 96.7982C26.1368 96.789 26.1751 96.79 26.211 96.801C26.2847 96.8225 26.3393 96.8838 26.3542 96.9591L26.7349 98.8633L28.6383 99.244C28.7128 99.2589 28.7741 99.3136 28.7956 99.3872C28.8065 99.423 28.8074 99.461 28.7984 99.4973C28.7893 99.5336 28.7706 99.5668 28.7443 99.5933L27.3117 101.025C27.2397 101.097 27.1542 101.154 27.06 101.193C26.9659 101.232 26.865 101.253 26.763 101.253Z" stroke="black" stroke-width="0.2"/>
<path d="M12.2414 105.597C12.2414 107.655 13.0588 109.629 14.5138 111.084C15.9688 112.539 17.9423 113.356 20 113.356C21.0189 113.356 22.0278 113.155 22.9691 112.765C23.9104 112.376 24.7657 111.804 25.4862 111.084C26.2066 110.363 26.7781 109.508 27.168 108.567C27.5579 107.625 27.7586 106.616 27.7586 105.597C27.7586 104.854 27.6543 104.136 27.4599 103.456C27.4212 103.3 27.4446 103.136 27.525 102.996C27.6055 102.857 27.7368 102.755 27.8913 102.71C28.0458 102.666 28.2115 102.684 28.3534 102.759C28.4954 102.834 28.6026 102.962 28.6524 103.115C28.8792 103.904 29 104.737 29 105.597C29 110.568 24.9705 114.597 20 114.597C15.0295 114.597 11 110.568 11 105.597C11 100.627 15.0295 96.5974 20 96.5974C20.84 96.5966 21.675 96.7133 22.4828 96.9442C22.5615 96.9663 22.6351 97.0037 22.6994 97.0543C22.7636 97.105 22.8172 97.1678 22.8571 97.2392C22.8969 97.3107 22.9223 97.3892 22.9317 97.4705C22.9411 97.5518 22.9343 97.6341 22.9118 97.7127C22.8893 97.7913 22.8515 97.8647 22.8005 97.9287C22.7495 97.9927 22.6864 98.0459 22.6147 98.0854C22.5431 98.1249 22.4644 98.1498 22.383 98.1588C22.3017 98.1677 22.2195 98.1605 22.141 98.1376C21.4447 97.9387 20.7241 97.8382 20 97.8388C17.9423 97.8388 15.9688 98.6562 14.5138 100.111C13.0588 101.566 12.2414 103.54 12.2414 105.597Z" stroke="black" stroke-width="0.2"/>
<path d="M15.9655 105.597C15.9678 106.146 16.0818 106.687 16.3006 107.19C16.5193 107.693 16.8382 108.145 17.2377 108.521C17.6373 108.896 18.1091 109.186 18.6244 109.373C19.1397 109.559 19.6877 109.639 20.2349 109.607C20.7821 109.575 21.3171 109.432 21.807 109.186C22.297 108.941 22.7318 108.598 23.0848 108.178C23.4379 107.759 23.7017 107.272 23.8603 106.747C24.0189 106.223 24.0688 105.671 24.0072 105.127C23.9898 105.016 24.0026 104.903 24.0442 104.8C24.0858 104.696 24.1546 104.606 24.2434 104.538C24.3322 104.47 24.4377 104.428 24.5486 104.415C24.6596 104.402 24.7719 104.42 24.8737 104.466C25.0814 104.559 25.2212 104.757 25.2394 104.983C25.3679 106.072 25.1541 107.173 24.6278 108.135C24.1014 109.096 23.2886 109.87 22.3023 110.348C21.3161 110.826 20.2053 110.985 19.1246 110.802C18.0438 110.62 17.0466 110.106 16.2717 109.331C15.497 108.556 14.9824 107.56 14.7994 106.48C14.6163 105.4 14.7738 104.29 15.2501 103.304C15.7263 102.318 16.4977 101.504 17.4572 100.976C18.4167 100.448 19.5169 100.231 20.605 100.356C20.6872 100.364 20.7671 100.388 20.84 100.427C20.9129 100.466 20.9772 100.519 21.0293 100.583C21.0814 100.647 21.1202 100.721 21.1434 100.8C21.1666 100.88 21.1737 100.963 21.1643 101.045C21.1549 101.127 21.1293 101.206 21.0888 101.278C21.0484 101.35 20.994 101.413 20.9288 101.464C20.8636 101.515 20.7889 101.552 20.7092 101.574C20.6294 101.595 20.5461 101.601 20.4643 101.589C19.8991 101.524 19.3264 101.579 18.7839 101.751C18.2414 101.922 17.7413 102.207 17.3165 102.585C16.8917 102.964 16.5517 103.428 16.3188 103.947C16.086 104.466 15.9656 105.028 15.9655 105.597Z" stroke="black" stroke-width="0.2"/>
<path d="M18 134.208C18 133.871 18.8954 133.598 20 133.598C21.1046 133.598 22 133.871 22 134.208L22 162.321C22 162.658 21.1046 162.931 20 162.931C18.8954 162.931 18 162.658 18 162.321L18 134.208Z" fill="url(#paint1_linear_408_8252)"/>
<path d="M0 190.931C0 179.885 8.95431 170.931 20 170.931C31.0457 170.931 40 179.885 40 190.931C40 201.977 31.0457 210.931 20 210.931C8.95431 210.931 0 201.977 0 190.931Z" fill="#F7931A"/>
<path d="M24.3974 191.782C26.8221 192.166 27.8618 195.151 26.1667 196.965C25.4616 197.719 24.6733 197.919 23.678 197.925C20.4495 197.943 17.2209 197.913 13.9928 197.928C13.4758 197.858 13.0694 197.451 13 196.934V184.924C13.0694 184.406 13.4762 184 13.9928 183.931H23.3724C23.9212 183.984 24.326 184.416 24.3941 184.956L24.3974 191.782ZM15.6503 186.536C15.1117 186.701 15.1643 187.4 15.7038 187.508H21.6606C22.2568 187.419 22.2568 186.618 21.6606 186.53L15.6503 186.536ZM15.7123 189.135C15.1517 189.231 15.1117 189.973 15.6732 190.105L21.6912 190.104C22.2514 190.04 22.2674 189.198 21.63 189.126L15.7123 189.135ZM15.6197 191.761C15.0962 191.954 15.1835 192.663 15.7385 192.729L19.9806 192.732C20.5923 192.67 20.6719 191.943 20.101 191.756L15.6197 191.761ZM23.6552 192.741C20.9832 193.017 21.3137 197.186 24.104 196.948C26.8437 196.714 26.5299 192.445 23.6552 192.741ZM15.6503 194.358C15.1268 194.519 15.1558 195.187 15.676 195.327H19.4293C19.9667 195.19 19.9671 194.491 19.4293 194.353L15.6503 194.358Z" fill="black"/>
<path d="M24.7524 193.717C25.2486 193.614 25.5498 194.123 25.2347 194.536C24.8801 195 24.2375 195.472 23.8298 195.911C23.6723 195.999 23.4711 196.002 23.3148 195.905C23.2287 195.851 22.553 195.177 22.5048 195.096C22.2372 194.639 22.7758 194.133 23.2181 194.443C23.3095 194.507 23.514 194.801 23.6086 194.776C23.7033 194.751 24.406 193.947 24.5761 193.816C24.6259 193.777 24.6896 193.73 24.7516 193.717L24.7524 193.717Z" fill="black"/>
<path d="M18 219.541C18 219.204 18.8954 218.931 20 218.931C21.1046 218.931 22 219.204 22 219.541L22 247.654C22 247.991 21.1046 248.264 20 248.264C18.8954 248.264 18 247.991 18 247.654L18 219.541Z" fill="url(#paint2_linear_408_8252)"/>
<path d="M0 276.264C0 265.218 8.95431 256.264 20 256.264C31.0457 256.264 40 265.218 40 276.264C40 287.31 31.0457 296.264 20 296.264C8.95431 296.264 0 287.31 0 276.264Z" fill="#F7931A"/>
<path d="M21.7264 281.077C21.7264 280.836 21.5297 280.639 21.2892 280.639H18.6655C18.425 280.639 18.2282 280.836 18.2282 281.077C18.2282 281.317 18.425 281.514 18.6655 281.514H21.2892C21.5297 281.514 21.7264 281.317 21.7264 281.077Z" fill="black"/>
<path d="M20.8476 278.889H23.4712C23.7117 278.889 23.9085 279.086 23.9085 279.327C23.9085 279.567 23.7117 279.764 23.4712 279.764H20.8476C20.607 279.764 20.4103 279.567 20.4103 279.327C20.4103 279.086 20.607 278.889 20.8476 278.889Z" fill="black"/>
<path d="M21.3154 281.514C21.5559 281.514 21.7527 281.317 21.7527 281.077C21.7527 280.836 21.5559 280.639 21.3154 280.639H18.6918C18.4513 280.639 18.2545 280.836 18.2545 281.077C18.2545 281.317 18.4513 281.514 18.6918 281.514H21.3154ZM20.8738 279.764H23.4974C23.7379 279.764 23.9347 279.567 23.9347 279.327C23.9347 279.086 23.7379 278.889 23.4974 278.889H20.8738C20.6333 278.889 20.4365 279.086 20.4365 279.327C20.4365 279.567 20.6333 279.764 20.8738 279.764ZM20.4365 282.389H19.1028C18.8623 282.389 18.6655 282.586 18.6655 282.827C18.6655 283.067 18.8623 283.264 19.1028 283.264H20.4365C20.677 283.264 20.8738 283.067 20.8738 282.827C20.8738 282.586 20.677 282.389 20.4365 282.389ZM25.6838 282.389H22.2075C21.9669 282.389 21.7702 282.586 21.7702 282.827C21.7702 283.067 21.9669 283.264 22.2075 283.264H25.6838C25.9243 283.264 26.1211 283.067 26.1211 282.827C26.1211 282.586 25.9243 282.389 25.6838 282.389ZM26.5627 280.639H23.5018C23.2613 280.639 23.0645 280.836 23.0645 281.077C23.0645 281.317 23.2613 281.514 23.5018 281.514H26.5627C26.8032 281.514 27 281.317 27 281.077C27 280.836 26.8032 280.639 26.5627 280.639Z" fill="black"/>
<path d="M26.8645 279.764C26.7332 278.229 26.3178 276.728 25.6313 275.35C24.971 274.094 24.0265 273.018 22.8678 272.209L23.9172 269.89C23.9872 269.75 23.9741 269.584 23.8866 269.452C23.8079 269.334 23.6767 269.264 23.5368 269.264H16.3917C16.243 269.264 16.1031 269.339 16.0244 269.465C15.9457 269.592 15.9326 269.75 15.9938 269.885L16.9164 271.889H21.0531L20.6551 272.764H20.3141C20.5677 273.438 20.7557 274.134 20.8738 274.842C20.9481 275.275 20.9962 275.713 21.0137 276.155L20.3228 276.64C20.3228 276.076 20.2791 275.512 20.1829 274.952C20.0648 274.199 19.8593 273.464 19.5663 272.764H19.1291C18.7312 273.276 18.3726 273.819 18.0577 274.387C17.7997 274.877 17.5811 275.385 17.4062 275.905L16.8071 275.503C16.982 275 17.1963 274.51 17.4499 274.042C17.6992 273.6 17.9703 273.175 18.2676 272.764H16.3742C15.539 273.49 14.8394 274.365 14.3234 275.35C13.3789 277.104 13.0859 279.244 13.0028 280.731C12.9766 281.173 13.134 281.602 13.4401 281.921C13.7068 282.179 14.0523 282.332 14.4152 282.372L14.4283 282.389H17.8741C17.9003 282.315 17.9265 282.24 17.9659 282.17C17.6117 281.934 17.3756 281.532 17.3756 281.077C17.3756 280.355 17.9659 279.764 18.6874 279.764H19.6363C19.5882 279.629 19.562 279.48 19.562 279.327C19.562 278.605 20.1523 278.014 20.8738 278.014H23.4974C24.2189 278.014 24.8092 278.605 24.8092 279.327C24.8092 279.48 24.783 279.629 24.7349 279.764H26.8645Z" fill="black"/>
<defs>
<linearGradient id="paint0_linear_408_8252" x1="22.5" y1="48.2641" x2="22.5" y2="77.5974" gradientUnits="userSpaceOnUse">
<stop stop-color="#F7931A"/>
<stop offset="1" stop-color="#91560F"/>
</linearGradient>
<linearGradient id="paint1_linear_408_8252" x1="22.5" y1="133.598" x2="22.5" y2="162.931" gradientUnits="userSpaceOnUse">
<stop stop-color="#F7931A"/>
<stop offset="1" stop-color="#91560F"/>
</linearGradient>
<linearGradient id="paint2_linear_408_8252" x1="22.5" y1="218.931" x2="22.5" y2="248.264" gradientUnits="userSpaceOnUse">
<stop stop-color="#F7931A"/>
<stop offset="1" stop-color="#91560F"/>
</linearGradient>
</defs>
</svg>
